# File created by Blade
# Date/Time:  Wed Jan 21 17:21:31 2015
# Frame Rate: 120.000 fps
#------------------------------------------------------
:FULLY-SPECIFIED
:DEGREES
485
root 21.697191 16.978886 -21.625762 -155.237913 13.746233 -203.335228
Spine 44.273986 18.774300 -24.121886
Head 6.947770 -8.648996 4.699055
LeftShoulder 21.747347 -38.490060 -3.723756
LeftArm 24.915931 35.125135 -46.304506
LeftForeArm -22.799878 -0.000000 17.581203
LeftHand 0.879546 -0.000000 -3.579362
LeftHandThumb1 -26.253704 0.000000 33.147579
RightShoulder 16.535615 1.360407 -3.830751
RightArm 45.939567 8.386842 57.544890
RightForeArm -7.766021 0.000000 15.025234
RightHand -8.389768 -0.000000 -8.676050
RightHandThumb1 -24.326973 -0.000000 -32.862282
LeftUpLeg -115.654688 -2.569514 -34.929832
LeftLeg 105.021650 -0.000000 -0.000000
LeftFoot -35.851285 20.634662 -8.429819
LeftToeBase 21.401654 -0.000000 -0.000000
RightUpLeg 6.504792 -8.295112 -9.412560
RightLeg 95.420908 -0.000000 -0.000000
RightFoot 15.013967 -37.846500 -0.393342
RightToeBase 14.382835 -0.000000 -0.000000
486
root 21.724828 16.948794 -21.589775 -155.216723 13.801655 -203.340879
Spine 44.053737 18.945931 -24.186888
Head 6.808267 -8.526309 4.452032
LeftShoulder 21.317682 -38.068860 -3.477643
LeftArm 24.650065 35.330415 -46.033751
LeftForeArm -22.590710 -0.000000 18.277070
LeftHand 0.951975 -0.000000 -3.107612
LeftHandThumb1 -26.253704 0.000000 33.147579
RightShoulder 16.548878 1.336498 -3.864789
RightArm 45.870966 8.431211 57.729626
RightForeArm -7.881522 -0.000000 14.974785
RightHand -8.372491 -0.000000 -8.680714
RightHandThumb1 -24.326973 -0.000000 -32.862282
LeftUpLeg -115.836807 -2.434496 -35.007384
LeftLeg 105.044542 -0.000000 -0.000000
LeftFoot -35.863781 20.673311 -8.465428
LeftToeBase 21.541184 -0.000000 -0.000000
RightUpLeg 6.539750 -8.717555 -9.368247
RightLeg 96.413950 -0.000000 -0.000000
RightFoot 15.856887 -37.698029 -0.964570
RightToeBase 14.430995 -0.000000 -0.000000
487
root 21.748880 16.918863 -21.557439 -155.220212 13.853651 -203.377014
Spine 43.856702 19.052371 -24.299134
Head 6.656721 -8.450777 4.133968
LeftShoulder 20.729946 -37.538439 -3.155187
LeftArm 24.551286 35.627046 -45.628873
LeftForeArm -22.157339 -0.000000 18.907716
LeftHand 0.984068 0.000000 -2.436491
LeftHandThumb1 -26.253704 0.000000 33.147579
RightShoulder 16.658049 1.361629 -3.974190
RightArm 45.737516 8.537067 58.059881
RightForeArm -8.003530 -0.000000 14.957208
RightHand -8.285296 -0.000000 -8.772061
RightHandThumb1 -24.326973 -0.000000 -32.862282
LeftUpLeg -115.996094 -2.316549 -35.109233
LeftLeg 105.074096 -0.000000 -0.000000
LeftFoot -35.754785 20.685861 -8.403430
LeftToeBase 21.417742 -0.000000 -0.000000
RightUpLeg 6.591990 -9.135446 -9.354034
RightLeg 97.405226 -0.000000 -0.000000
RightFoot 16.393160 -37.653754 -1.051318
RightToeBase 14.802099 -0.000000 -0.000000
488
root 21.768028 16.886016 -21.541916 -155.318465 13.959412 -203.466560
Spine 43.718223 19.275554 -24.438648
Head 6.591466 -8.398331 3.895175
LeftShoulder 20.255287 -37.105723 -2.935188
LeftArm 24.294296 35.997313 -45.328798
LeftForeArm -22.122885 -0.000000 19.410289
LeftHand 1.019613 0.000000 -1.924504
LeftHandThumb1 -26.253704 0.000000 33.147579
RightShoulder 16.723115 1.369599 -4.033814
RightArm 45.595921 8.608883 58.321099
RightForeArm -8.019523 0.000000 14.884969
RightHand -8.136447 -0.000000 -8.981763
RightHandThumb1 -24.326973 -0.000000 -32.862282
LeftUpLeg -116.057669 -2.162312 -35.221663
LeftLeg 105.143343 -0.000000 -0.000000
LeftFoot -35.735367 20.699930 -8.262657
LeftToeBase 21.469402 -0.000000 -0.000000
RightUpLeg 6.772004 -9.535734 -9.482856
RightLeg 98.351361 -0.000000 -0.000000
RightFoot 17.243109 -37.356755 -1.519841
RightToeBase 14.676410 -0.000000 -0.000000
489
root 21.791525 16.853485 -21.524805 -155.402736 14.047292 -203.528658
Spine 43.586638 19.499972 -24.547761
Head 6.492680 -8.393063 3.673897
LeftShoulder 19.718758 -36.547013 -2.636584
LeftArm 24.127866 36.347432 -44.941151
LeftForeArm -22.441213 -0.000000 19.970364
LeftHand 1.112194 -0.000000 -1.861866
LeftHandThumb1 -26.253704 0.000000 33.147579
RightShoulder 16.746233 1.335163 -4.090971
RightArm 45.530626 8.658403 58.538114
RightForeArm -7.952720 0.000000 14.784813
RightHand -7.992093 -0.000000 -9.172238
RightHandThumb1 -24.326973 -0.000000 -32.862282
LeftUpLeg -116.126246 -2.020516 -35.271816
LeftLeg 105.198919 -0.000000 -0.000000
LeftFoot -35.766130 20.703232 -8.150042
LeftToeBase 21.574393 -0.000000 -0.000000
RightUpLeg 6.934520 -9.928907 -9.528431
RightLeg 99.303290 -0.000000 -0.000000
RightFoot 18.115196 -36.958726 -2.036442
RightToeBase 14.788820 -0.000000 -0.000000
490
root 21.812609 16.817698 -21.511039 -155.461705 14.113613 -203.599545
Spine 43.398032 19.703444 -24.668349
Head 6.501399 -8.395522 3.504219
LeftShoulder 19.273523 -36.134399 -2.387048
LeftArm 23.532363 36.673460 -44.989655
LeftForeArm -21.965915 -0.000000 20.494688
LeftHand 1.186104 -0.000000 -1.583135
LeftHandThumb1 -26.253704 0.000000 33.147579
RightShoulder 16.774434 1.257113 -4.134491
RightArm 45.440671 8.752484 58.769226
RightForeArm -7.903036 -0.000000 14.724109
RightHand -7.887407 0.000000 -9.251330
RightHandThumb1 -24.326973 -0.000000 -32.862282
LeftUpLeg -116.187134 -1.944153 -35.262235
LeftLeg 105.247741 -0.000000 -0.000000
LeftFoot -35.871262 20.795166 -8.002249
LeftToeBase 21.687936 -0.000000 -0.000000
RightUpLeg 7.104690 -10.379471 -9.623360
RightLeg 100.253368 -0.000000 -0.000000
RightFoot 18.985064 -36.489280 -2.578752
RightToeBase 15.073621 -0.000000 -0.000000
491
root 21.873602 16.728652 -21.466967 -155.253246 13.870708 -202.963804
Spine 43.017015 19.706230 -23.987957
Head 6.666665 -8.363897 3.080649
LeftShoulder 18.638788 -35.580323 -2.180202
LeftArm 22.854411 36.763359 -45.284988
LeftForeArm -21.518980 -0.000000 20.965956
LeftHand 1.352812 -0.000000 -1.223380
LeftHandThumb1 -26.253704 0.000000 33.147579
RightShoulder 16.804810 1.135246 -4.354452
RightArm 45.316160 8.752372 59.013341
RightForeArm -7.760353 -0.000000 14.663912
RightHand -7.790980 -0.000000 -9.191405
RightHandThumb1 -24.326973 -0.000000 -32.862282
LeftUpLeg -115.335585 -3.042155 -31.052212
LeftLeg 104.338747 -0.000000 -0.000000
LeftFoot -37.922629 24.648408 -3.753030
LeftToeBase 24.218092 -0.000000 -0.000000
RightUpLeg 7.188123 -10.869082 -8.710398
RightLeg 101.138581 -0.000000 -0.000000
RightFoot 19.974611 -36.470690 -2.933930
RightToeBase 14.568433 -0.000000 -0.000000
492
root 21.865976 16.701272 -21.466783 -155.344787 14.044628 -203.272714
Spine 42.769235 19.931488 -24.370417
Head 6.776818 -8.411986 2.963460
LeftShoulder 18.198922 -35.090009 -1.970619
LeftArm 22.114956 37.037506 -45.413474
LeftForeArm -21.210231 -0.000000 21.516424
LeftHand 1.285117 -0.000000 -1.061270
LeftHandThumb1 -26.253704 0.000000 33.147579
RightShoulder 16.798510 1.108203 -4.373342
RightArm 45.188776 8.815758 59.248256
RightForeArm -7.648343 0.000000 14.497941
RightHand -7.602335 -0.000000 -9.066911
RightHandThumb1 -24.326973 -0.000000 -32.862282
LeftUpLeg -115.431840 -2.938933 -31.570496
LeftLeg 104.465918 -0.000000 -0.000000
LeftFoot -37.869046 24.402202 -4.011400
LeftToeBase 24.276719 -0.000000 -0.000000
RightUpLeg 7.388398 -11.323176 -9.208128
RightLeg 102.130579 -0.000000 -0.000000
RightFoot 20.860597 -36.043505 -3.315445
RightToeBase 14.193507 -0.000000 -0.000000
493
root 21.857564 16.671340 -21.466204 -155.383062 14.232493 -203.540721
Spine 42.403111 20.017687 -24.834979
Head 6.941383 -8.350565 2.763923
LeftShoulder 17.624588 -34.668660 -1.660611
LeftArm 20.977752 36.891890 -46.062968
LeftForeArm -20.579009 -0.000000 21.855258
LeftHand 1.393504 0.000000 -1.519497
LeftHandThumb1 -26.253704 0.000000 33.147579
RightShoulder 16.980844 1.088928 -4.452005
RightArm 45.028399 8.870809 59.508342
RightForeArm -7.574358 -0.000000 14.351713
RightHand -7.458842 -0.000000 -8.922119
RightHandThumb1 -24.326973 -0.000000 -32.862282
LeftUpLeg -115.608284 -2.827376 -32.062364
LeftLeg 104.634565 -0.000000 -0.000000
LeftFoot -37.727507 23.987881 -4.225359
LeftToeBase 24.189477 -0.000000 -0.000000
RightUpLeg 7.540807 -11.744524 -9.677203
RightLeg 103.109336 -0.000000 -0.000000
RightFoot 22.027387 -35.994885 -3.598121
RightToeBase 14.109474 -0.000000 -0.000000
494
root 21.844209 16.639131 -21.469929 -155.440493 14.437342 -203.836446
Spine 42.045502 20.180918 -25.260555
Head 7.148926 -8.316688 2.553406
LeftShoulder 17.045135 -34.064139 -1.472651
LeftArm 20.181767 37.220473 -46.185036
LeftForeArm -20.565968 -0.000000 22.341639
LeftHand 1.457122 -0.000000 -1.320516
LeftHandThumb1 -26.253704 0.000000 33.147579
RightShoulder 17.081057 1.032838 -4.549293
RightArm 44.894454 8.893663 59.710907
RightForeArm -7.474213 -0.000000 14.137982
RightHand -7.263456 -0.000000 -8.814454
RightHandThumb1 -24.326973 -0.000000 -32.862282
LeftUpLeg -115.792592 -2.746819 -32.610540
LeftLeg 104.843544 -0.000000 -0.000000
LeftFoot -37.571466 23.690440 -4.487336
LeftToeBase 23.946770 -0.000000 -0.000000
RightUpLeg 7.716632 -12.168654 -10.201607
RightLeg 104.140668 -0.000000 -0.000000
RightFoot 23.308806 -35.525586 -4.313717
RightToeBase 13.961099 -0.000000 -0.000000
